name processed_emg_signals
nRows=99
nColumns=7
 
endheader
time	LGLTMED	LRF	LADDLONG	LST	LTA	LGM
0.442	0.3539004853706324	0.2345394342130762	0.3895036143007639	0.0834449188896288	0.0990317100634942	0.4655116871555751
0.443	0.3511302283961632	0.2344117554446175	0.3929915075210972	0.0830369886880173	0.0992720939755989	0.4703693690884523
0.444	0.3483934479414771	0.2342818047442254	0.3966106386043553	0.0826239292549699	0.0995281788282422	0.4751620714968653
0.445	0.3456915242604896	0.234150229379714	0.4003610801697477	0.0822055237052895	0.0997992618387213	0.4798864579796786
0.446	0.3430257564383097	0.2340176657331062	0.404242756811251	0.0817815691585501	0.1000846097075037	0.4845392178317895
0.447	0.3403973623891962	0.2338847381035504	0.4082554420392954	0.0813518772394662	0.1003834596380412	0.4891170688135738
0.448	0.3378074790093157	0.2337520575532052	0.412398755399772	0.0809162745420887	0.1006950204075397	0.4936167599736808
0.449	0.3352571624802282	0.233620220797962	0.4166721597779982	0.0804746030569364	0.1010184734888286	0.498035074519344
0.45	0.3327473887192399	0.2334898091442837	0.4210749588954819	0.0800267205602727	0.1013529742233701	0.5023688327280322
0.451	0.330279053971674	0.2333613874735714	0.4256062950061658	0.0795725009645187	0.1016976530453512	0.5066148948943663
0.452	0.3278529755407202	0.2332355032748506	0.4302651467993389	0.0791118346288271	0.1020516167566791	0.5107701643062315
0.453	0.3254698926498863	0.2331126857264563	0.4350503275161931	0.0786446286287089	0.1024139498524744	0.5148315902440725
0.454	0.323130467433274	0.2329934448269935	0.4399604832866758	0.0781708069836771	0.1027837158964666	0.5187961709972752
0.455	0.3208352860487464	0.232878270575768	0.4449940916941528	0.0776903108420044	0.1031599589454425	0.5226609568910641
0.456	0.3185848599088699	0.2327676322026044	0.4501494605756965	0.0772030986218444	0.1035417050216256	0.5264230533174793
0.457	0.3163796270239797	0.2326619774471889	0.4554247270659892	0.0767091461082219	0.1039279636318287	0.5300796237642154
0.458	0.314219953452787	0.2325617318880904	0.460817856892688	0.0762084465057072	0.1043177293319615	0.5336278928358136
0.459	0.3121061348556231	0.2324672983219037	0.4663266439325521	0.0757010104469131	0.1047099833353832	0.5370651492620477
0.46	0.3100383981459947	0.2323790561933871	0.4719487100375506	0.0751868659573836	0.1051036951633924	0.540388748888635
0.461	0.3080169032364173	0.2322973610779823	0.4776815051402835	0.0746660583778125	0.1054978243360817	0.5435961176446551
0.462	0.3060417448740745	0.2322225442181573	0.4835223076487071	0.0741386502446534	0.1058913221016595	0.5466847544801112
0.463	0.3041129545615945	0.2321549121151544	0.489468225138751	0.0736047211303235	0.1062831332022912	0.5496522342659527
0.464	0.3022305025575036	0.2320947461778469	0.4955161953537463	0.0730643674440354	0.1066721976743551	0.5524962106486975
0.465	0.300394299950579	0.2320423024297319	0.5016629875182964	0.0725177021943359	0.1070574526810033	0.5552144188523359
0.466	0.2986042008020932	0.2319978112755838	0.5079052039733623	0.0719648547145141	0.1074378343747376	0.5578046784213511
0.467	0.296860004349965	0.2319614773279899	0.5142392821390324	0.0714059703522407	0.1078122797877158	0.5602648958996137
0.468	0.2951614572688075	0.2319334792946016	0.5206614968100476	0.0708412101251129	0.1081797287472676	0.5625930674397716
0.46900000000000003	0.2935082559797879	0.2319139699257798	0.5271679627885835	0.0702707503440065	0.108539125813928	0.5647872813375955
0.47000000000000003	0.2919000490041383	0.2319030760227755	0.5337546378577506	0.0696947822063336	0.1088894222389599	0.5668457204848734
0.47100000000000003	0.2903364393535516	0.2319008985060979	0.5404173260993602	0.0691135113613372	0.109229577938134	0.5687666647341586
0.47200000000000003	0.2888169869503313	0.2319075125430849	0.5471516815568812	0.0685271574497128	0.1095585634784406	0.570548493168254
0.47300000000000003	0.2873412110698828	0.2319229677338463	0.553953212245108	0.0679359536197807	0.1098753620742691	0.5721896862677149
0.47400000000000003	0.2859085927976209	0.2319472883537467	0.5608172845052875	0.0673401460223728	0.1101789715897319	0.5736888279701319
0.47500000000000003	0.2845185774923913	0.2319804736510027	0.5677391277045722	0.0667399932865591	0.1104684065437091	0.5750446076160415
0.47600000000000003	0.283170577248848	0.232022498197215	0.5747138392763688	0.0661357659780377	0.1107427001142453	0.5762558217764713
0.47700000000000004	0.2818639733510641	0.2320733122887169	0.5817363900979752	0.0655277460419118	0.1110009061387632	0.5773213759569195
0.47800000000000004	0.2805981187108078	0.2321328423963522	0.5888016302007333	0.0649162262313965	0.1112421011064495	0.5782402861717151
0.47900000000000004	0.2793723402841685	0.2322009916611176	0.5959042948071807	0.0643015095238361	0.1114653861389779	0.5790116803817857
0.48	0.2781859414606141	0.2322776404333011	0.6030390106893275	0.0636839085253467	0.1116698889554888	0.579634799788017
0.481	0.2770382044184892	0.2323626468528943	0.6102003028409586	0.0630637448653202	0.1118547658175934	0.580108999971573
0.482	0.2759283924404418	0.2324558474693964	0.6173826014574613	0.0624413485820173	0.1120192034498905	0.5804337518717151
0.483	0.2748557521823941	0.2325570578994963	0.624580249214173	0.0618170575003474	0.1121624209315321	0.5806086425910264
0.484	0.2738195158894891	0.2326660735213031	0.6317875088348961	0.0611912166029696	0.1122836715542997	0.5806333760189393
0.485	0.2728189035526853	0.2327826702041678	0.6389985709392513	0.060564177395669	0.1123822446427269	0.5805077732660487
0.486	0.2718531250002897	0.2329066050732637	0.6462075621557436	0.0599362972680169	0.1124574673317518	0.580231772904552
0.487	0.2709213819191448	0.2330376173078876	0.6534085534861407	0.0593079388503259	0.1125087062972482	0.5798054310126349
0.488	0.2700228698015083	0.2331754289730491	0.6605955689035952	0.0586794693678759	0.112535369434738	0.5792289210229024
0.489	0.2691567798143141	0.2333197458831307	0.6677625941670385	0.058051259993462	0.1125369074815474	0.5785025333768369
0.49	0.2683223005874592	0.2334702584971179	0.6749035858332634	0.0574236851993749	0.1125128155779218	0.577626674988632
0.491	0.2675186199181708	0.2336266428439572	0.682012480448149	0.0567971221098517	0.1124626347629447	0.5766018685234493
0.492	0.2667449263884098	0.2337885614770317	0.6890832038986263	0.0561719498551528	0.112385953401794	0.5754287514972956
0.493	0.2660004108925479	0.233955664455658	0.6961096809071339	0.0555485489282418	0.112282408541567	0.5741080752081449
0.494	0.265284268073626	0.2341275903517074	0.7030858446490295	0.05492730054504	0.1121516871938126	0.5726407035098291
0.495	0.2645956976666032	0.2343039672786045	0.7100056464733357	0.0543085860091035	0.1119935275423725	0.5710276114413931
0.496	0.2639339057479737	0.2344844139401253	0.7168630657052877	0.0536927860816604	0.1118077200754626	0.5692698837249052
0.497	0.2632981058918106	0.2346685406957635	0.7236521195084945	0.0530802803578057	0.1115941086409816	0.5673687131442389
0.498	0.2626875202329531	0.2348559506396567	0.7303668727832752	0.0524714466498128	0.1113525914240562	0.5653253988165446
0.499	0.2621013804392698	0.2350462406894267	0.7370014480784742	0.0518666603783664	0.1110831218458962	0.5631413443669724
0.5	0.2615389285956329	0.2352390026816322	0.7435500354933469	0.0512662939726243	0.1107857093830415	0.5608180560162778
0.501	0.26099941800331	0.2354338244698707	0.7500069025474737	0.0506707162798702	0.1104604203060609	0.5583571405895269
0.502	0.2604821138991019	0.2356302910219097	0.7563664039949395	0.0500802919855709	0.1101073783367461	0.5557603034526658
0.503	0.2599862940994254	0.235827985511909	0.7626229915601386	0.049495381044639	0.109726765223147	0.5530293463821269
0.504	0.2595112495744731	0.236026490402869	0.768771223569978	0.0489163381247274	0.1093188212320535	0.5501661653716282
0.505	0.2590562849574109	0.236225388515006	0.7748057744585335	0.0483435120623956	0.1088838455591805	0.5471727483795477
0.506	0.2586207189932361	0.2364242640740647	0.7807214441203855	0.047777245332954	0.1084221966578403	0.5440511730202948
0.507	0.2582038849308765	0.2366227037340358	0.7865131670911982	0.047217873534724	0.1079342924873089	0.5408036042030758
0.508	0.2578051308618707	0.2368202975683322	0.7921760215362731	0.0466657248884684	0.1074206106824239	0.537432291721567
0.509	0.2574238200079415	0.2370166400233199	0.7977052380303181	0.0461211197525998	0.1068816886460439	0.5339395677978125
0.51	0.2570593309596462	0.2372113308286203	0.8030962081139992	0.0455843701548022	0.10631812356596	0.530327844583328
0.511	0.2567110578676553	0.2374039758589944	0.8083444926136735	0.0450557793405617	0.1057305723577886	0.5265996116202502
0.512	0.256378410588632	0.237594187943139	0.8134458297116033	0.044535641339124	0.1051197515353302	0.5227574332651806
0.513	0.2560608147871083	0.2377815876162473	0.8183961427523615	0.0440242405472346	0.1044864370098463	0.5188039460785003
0.514	0.2557577119952606	0.237965803813476	0.8231915477716839	0.0435218513310911	0.1038314638196423	0.5147418561820666
0.515	0.2554685596313173	0.238146474503212	0.8278283607322015	0.0430287376468137	0.103155725791184	0.5105739365888138
0.516	0.2551928309780782	0.2383232472593743	0.8323031044502437	0.0425451526797394	0.1024601751328089	0.5063030245084399
0.517	0.2549300151218289	0.2384957797727111	0.8366125151975526	0.0420713385028888	0.1017458219618612	0.5019320186337582
0.518	0.2546796168529728	0.2386637403021439	0.8407535489610272	0.0416075257549898	0.1010137337660731	0.4974638764122139
0.519	0.2544411565290316	0.2388268080674918	0.844723387344393	0.0411539333385168	0.1002650347998173	0.4929016113063891
0.52	0.2542141699013375	0.238984673585654	0.8485194430940851	0.0407107681382381	0.0995009054158986	0.4882482900471253
0.521	0.253998207906587	0.2391370389529409	0.852139365232701	0.0402782247607174	0.0987225813333855	0.4835070298829386
0.522	0.2537928364249632	0.2392836180757174	0.8555810437815062	0.0398564852951208	0.0979313528419125	0.4786809958295461
0.523	0.253597636006713	0.2394241368524213	0.8588426140524281	0.039445719095663	0.0971285639428927	0.4737733979233801
0.524	0.2534122015694087	0.2395583333096754	0.8619224604879165	0.0390460825858421	0.0963156114282112	0.4687874884826766
0.525	0.2532361420676116	0.2396859576949881	0.8648192200263365	0.0386577190845965	0.0954939438971121	0.4637265593795076
0.526	0.2530690801370801	0.2398067725284282	0.8675317849691816	0.0382807586544066	0.0946650607121666	0.4585939393255153
0.527	0.2529106517148213	0.2399205526156577	0.8700593053261332	0.0379153179712748	0.093830510895124	0.4533929911737682
0.528	0.2527605056368006	0.2400270850248053	0.8724011906166128	0.0375615002165357	0.0929918919634666	0.4481271092383038
0.529	0.2526183032149616	0.2401261690301885	0.8745571111090085	0.0372193949902869	0.0921508487081851	0.4427997166321753
0.53	0.2524837177953447	0.2402176160263237	0.8765269984837385	0.0368890782463878	0.0913090719131914	0.4374142626240294
0.531	0.2523564342992783	0.2403012494156199	0.8783110459094776	0.036570612248889	0.0904682970164656	0.4319742200124762
0.532	0.2522361487497555	0.2403769044731823	0.8799097075257132	0.0362640455499337	0.0896303027129294	0.4264830825165722
0.533	0.252122567785508	0.2404444281918439	0.8813236973266543	0.0359694129890923	0.0887969094988884	0.420944362179789
0.534	0.2520154081649864	0.2405036791104348	0.8825539874431519	0.0356867357141633	0.0879699781577996	0.4153615867834481
0.535	0.2519143962628855	0.2405545271280611	0.8836018058194695	0.0354160212234704	0.0871514081869236	0.4097382972645774
0.536	0.2518192675617078	0.2405968533072654	0.8844686332843366	0.0351572634296884	0.0863431361643338	0.4040780451323781
0.537	0.2517297661413966	0.2406305496686314	0.8851562000157809	0.0349104427452579	0.0855471340556207	0.3983843898776034
0.538	0.2516456441698985	0.2406555189795659	0.8856664814059979	0.0346755261894106	0.0847654074594824	0.3926608963700144
0.539	0.2515666613980818	0.2406716745396836	0.8860016933346112	0.0344524675168686	0.0839999937913352	0.3869111322401636
0.54	0.2514925846619704	0.2406789399657485	0.8861642868663365	0.0342412073681461	0.0832529604040359	0.3811386652431223
